<svg width="71" height="71" viewBox="0 0 71 71" fill="none" xmlns="http://www.w3.org/2000/svg">
<path d="M37.953 31.4668L35.7174 22.6806C35.357 21.2666 33.3507 21.2666 32.9903 22.6806L30.7547 31.4668C30.6286 31.9582 30.2506 32.3439 29.7616 32.4775L20.0352 35.1365C18.6263 35.5221 18.6666 37.5334 20.0882 37.8636L29.0458 39.943C29.5524 40.0614 29.9557 40.4496 30.0867 40.9536L32.9903 51.9528C33.3583 53.3491 35.3418 53.3491 35.7098 51.9528L38.6134 40.9536C38.7469 40.4496 39.1477 40.0614 39.6543 39.943L48.6119 37.8636C50.0334 37.5334 50.0738 35.5221 48.6649 35.1365L38.9385 32.4775C38.4571 32.3414 38.079 31.9557 37.953 31.4668Z" fill="#535231"/>
<path d="M48.007 21.9394L47.1123 18.4234C46.9686 17.8589 46.1646 17.8589 46.0209 18.4234L45.1262 21.9394C45.0758 22.136 44.9245 22.2898 44.7305 22.3427L40.8389 23.4063C40.2743 23.5601 40.292 24.3641 40.8591 24.4977L44.4431 25.3294C44.6473 25.3773 44.8061 25.531 44.859 25.7352L46.0209 30.1358C46.1696 30.6954 46.9611 30.6954 47.1098 30.1358L48.2717 25.7352C48.3246 25.5336 48.4859 25.3773 48.6875 25.3294L52.2716 24.4977C52.8412 24.3666 52.8563 23.5601 52.2918 23.4063L48.4002 22.3427C48.2087 22.2898 48.0574 22.136 48.007 21.9394Z" fill="#535231"/>
<circle cx="35.5" cy="35.5" r="33.5" stroke="#535231" stroke-width="4"/>
</svg>
